<svg width="44" height="45" viewBox="0 0 44 45" fill="none" xmlns="http://www.w3.org/2000/svg">
<path d="M43.375 27C43.3754 25.504 42.9627 24.037 42.1826 22.7605C41.4024 21.4841 40.2849 20.4478 38.9534 19.766C37.6218 19.0841 36.1279 18.7831 34.6362 18.8961C33.1445 19.0091 31.7129 19.5318 30.4993 20.4065C29.2857 21.2812 28.3371 22.474 27.7582 23.8534C27.1792 25.2328 26.9923 26.7453 27.2181 28.2241C27.4438 29.703 28.0735 31.0908 29.0377 32.2346C30.0019 33.3784 31.2632 34.2338 32.6825 34.7066C32.407 35.9757 31.7054 37.1124 30.6944 37.9276C29.6833 38.7428 28.4237 39.1874 27.125 39.1875H22.25C20.7416 39.1875 19.2949 38.5883 18.2283 37.5217C17.1617 36.4551 16.5625 35.0084 16.5625 33.5V25.9641C23.0077 24.79 27.9375 19.0395 27.9375 12.2064V2.625C27.9375 1.97853 27.6807 1.35855 27.2236 0.901427C26.7665 0.444307 26.1465 0.1875 25.5 0.1875H20.625C19.9785 0.1875 19.3585 0.444307 18.9014 0.901427C18.4443 1.35855 18.1875 1.97853 18.1875 2.625C18.1875 3.27147 18.4443 3.89145 18.9014 4.34857C19.3585 4.80569 19.9785 5.0625 20.625 5.0625H23.0625V12.2064C23.0625 17.1627 19.1077 21.2495 14.2448 21.3125C13.0611 21.3284 11.886 21.1089 10.7878 20.6669C9.68958 20.2248 8.69012 19.569 7.84746 18.7375C7.0048 17.906 6.33573 16.9154 5.87911 15.8231C5.42248 14.7309 5.18739 13.5588 5.1875 12.375V5.0625H7.625C8.27147 5.0625 8.89145 4.80569 9.34857 4.34857C9.80569 3.89145 10.0625 3.27147 10.0625 2.625C10.0625 1.97853 9.80569 1.35855 9.34857 0.901427C8.89145 0.444307 8.27147 0.1875 7.625 0.1875H2.75C2.10353 0.1875 1.48355 0.444307 1.02643 0.901427C0.569307 1.35855 0.3125 1.97853 0.3125 2.625V12.375C0.312634 15.6155 1.45206 18.7527 3.53148 21.238C5.61089 23.7232 8.4979 25.3983 11.6875 25.9702V33.5C11.6907 36.3004 12.8046 38.9851 14.7847 40.9653C16.7649 42.9454 19.4496 44.0593 22.25 44.0625H27.125C29.7044 44.0594 32.1937 43.1137 34.1244 41.4033C36.0551 39.6929 37.2942 37.3358 37.6083 34.7756C39.2751 34.2674 40.7349 33.2377 41.7729 31.838C42.8109 30.4384 43.3725 28.7426 43.375 27ZM35.25 30.25C34.6072 30.25 33.9789 30.0594 33.4444 29.7023C32.9099 29.3452 32.4934 28.8376 32.2474 28.2437C32.0014 27.6499 31.937 26.9964 32.0624 26.366C32.1878 25.7355 32.4974 25.1564 32.9519 24.7019C33.4064 24.2474 33.9855 23.9378 34.616 23.8124C35.2464 23.687 35.8999 23.7514 36.4937 23.9974C37.0876 24.2434 37.5952 24.6599 37.9523 25.1944C38.3094 25.7289 38.5 26.3572 38.5 27C38.5 27.862 38.1576 28.6886 37.5481 29.2981C36.9386 29.9076 36.112 30.25 35.25 30.25Z" fill="white"/>
</svg>
